<svg id="_0113_brainstorming" xmlns="http://www.w3.org/2000/svg" xmlns:xlink="http://www.w3.org/1999/xlink" viewBox="0 0 500 500" data-imageid="brainstorming-83" imageName="Brainstorming" class="illustrations_image" style="width: 166px;"><defs><style>.cls-1_brainstorming-83{fill:none;stroke:#fff;stroke-miterlimit:10;stroke-width:.85px;}.cls-2_brainstorming-83{fill:url(#linear-gradient);}.cls-2_brainstorming-83,.cls-3_brainstorming-83,.cls-4_brainstorming-83,.cls-5_brainstorming-83,.cls-6_brainstorming-83,.cls-7_brainstorming-83,.cls-8_brainstorming-83,.cls-9_brainstorming-83,.cls-10_brainstorming-83,.cls-11_brainstorming-83,.cls-12_brainstorming-83,.cls-13_brainstorming-83,.cls-14_brainstorming-83,.cls-15_brainstorming-83,.cls-16_brainstorming-83{stroke-width:0px;}.cls-3_brainstorming-83{opacity:.18;}.cls-3_brainstorming-83,.cls-15_brainstorming-83,.cls-16_brainstorming-83{fill:#68e1fd;}.cls-3_brainstorming-83,.cls-16_brainstorming-83{isolation:isolate;}.cls-4_brainstorming-83{fill:url(#linear-gradient-4-brainstorming-83);}.cls-5_brainstorming-83{fill:url(#linear-gradient-2-brainstorming-83);}.cls-6_brainstorming-83{fill:url(#linear-gradient-3-brainstorming-83);}.cls-7_brainstorming-83{fill:url(#linear-gradient-8-brainstorming-83);}.cls-8_brainstorming-83{fill:url(#linear-gradient-7-brainstorming-83);}.cls-9_brainstorming-83{fill:url(#linear-gradient-5-brainstorming-83);}.cls-10_brainstorming-83{fill:url(#linear-gradient-6-brainstorming-83);}.cls-11_brainstorming-83{fill:#231f20;}.cls-12_brainstorming-83{fill:#c14834;}.cls-13_brainstorming-83{fill:#fff;}.cls-14_brainstorming-83{fill:#ffb4a3;}.cls-16_brainstorming-83{opacity:.43;}</style><linearGradient id="linear-gradient-brainstorming-83" x1="500.68" y1="2373.9" x2="964.31" y2="2373.9" gradientTransform="translate(-471 2760.19) scale(1 -1)" gradientUnits="userSpaceOnUse"><stop offset="0" stop-color="#231f20" stop-opacity="0"/><stop offset="1" stop-color="#231f20"/></linearGradient><linearGradient id="linear-gradient-2-brainstorming-83" x1="934.19" y1="2404.84" x2="911.91" y2="2328.77" gradientTransform="translate(-489.92 2753.07) scale(1 -1)" xlink:href="#linear-gradient-brainstorming-83"/><linearGradient id="linear-gradient-3-brainstorming-83" x1="807.94" y1="2406.53" x2="832.46" y2="2313.28" gradientTransform="translate(-489.92 2753.07) scale(1 -1)" xlink:href="#linear-gradient-brainstorming-83"/><linearGradient id="linear-gradient-4-brainstorming-83" x1="682.72" y1="2398.67" x2="693.34" y2="2437.22" gradientTransform="translate(-489.92 2753.07) scale(1 -1)" xlink:href="#linear-gradient-brainstorming-83"/><linearGradient id="linear-gradient-5-brainstorming-83" x1="675.35" y1="2394.67" x2="698.27" y2="2323.37" gradientTransform="translate(-489.92 2753.07) scale(1 -1)" gradientUnits="userSpaceOnUse"><stop offset="0" stop-color="#000" stop-opacity="0"/><stop offset=".8" stop-color="#000"/></linearGradient><linearGradient id="linear-gradient-6-brainstorming-83" x1="686.38" y1="2405.48" x2="703.92" y2="2432.58" gradientTransform="translate(-489.92 2753.07) scale(1 -1)" xlink:href="#linear-gradient-brainstorming-83"/><linearGradient id="linear-gradient-7-brainstorming-83" x1="567.75" y1="2401.22" x2="591.62" y2="2323.88" xlink:href="#linear-gradient-5-brainstorming-83"/><linearGradient id="linear-gradient-8-brainstorming-83" x1="577.88" y1="2408.17" x2="581.58" y2="2450.06" gradientTransform="translate(-489.92 2753.07) scale(1 -1)" xlink:href="#linear-gradient-brainstorming-83"/></defs><path id="background_brainstorming-83" class="cls-3_brainstorming-83 targetColor" d="M31.44,333.28c-2.56-30.81-4.85-63.26,8.23-91.29,7.35-15.25,16.81-29.38,28.12-41.98,10.09-11.16,25.95-14.01,38.83-20.75,20.86-10.92,34.83-31.43,46.32-51.98s21.63-42.39,38.23-59.13c18.42-18.64,43.91-29.59,69.96-32.26,26.05-2.67,52.64,2.62,76.66,13.11,11.01,4.82,21.68,10.81,30.31,19.19,18.11,17.6,25.12,43.27,34.57,66.69,5.18,12.85,11.29,25.3,18.26,37.27,6.19,10.62,15.4,20.46,20.67,31.4,5.27,10.95,8.47,21.79,15.21,32.26,6.36,9.89,13.39,19.36,19.08,29.67,13.02,23.76,18.36,50.97,15.29,77.89-1.61,13.73-5.6,27.56-14.11,38.45-9.3,11.9-23.11,19.29-36.99,25.24-57.1,24.32-120.53,29.52-180.84,14.84-21.49-5.3-42.6-13.11-64.64-14.57-22.26-1.46-44.36,3.65-66.52,6.18-21.48,2.46-53.24,2.88-72.16-9.53-20.35-13.36-22.7-49.2-24.48-70.72Z" style="fill: rgb(104, 225, 253);"/><g id="table_brainstorming-83"><rect class="cls-15_brainstorming-83 targetColor" x="29.68" y="381.8" width="463.63" height="17.01" style="fill: rgb(104, 225, 253);"/><rect class="cls-2_brainstorming-83" x="29.68" y="381.8" width="463.63" height="8.98"/></g><g id="character_4_brainstorming-83"><path class="cls-15_brainstorming-83 targetColor" d="M382.76,384.38c4.86-12.5,14.99-29.98,19.85-42.48,2.27-5.83,4.85-12.02,10.15-15.4,3.57-2.27,7.91-2.88,12.11-3.45l20.92-2.87c5.61-.75,10.13,1.09,14.69,4.45,4.57,3.35,7.97,8.06,10.92,12.91,6.84,11.21,11.7,23.52,14.35,36.39.58,2.84.92,6.22-1.15,8.26-1.5,1.5-3.81,1.77-5.93,1.88-30.27,1.71-65.55-1.26-95.92.33Z" style="fill: rgb(104, 225, 253);"/><path class="cls-5_brainstorming-83" d="M382.76,384.38c4.86-12.5,14.99-29.98,19.85-42.48,2.27-5.83,4.85-12.02,10.15-15.4,3.57-2.27,7.91-2.88,12.11-3.45l20.92-2.87c5.61-.75,10.13,1.09,14.69,4.45,4.57,3.35,7.97,8.06,10.92,12.91,6.84,11.21,11.7,23.52,14.35,36.39.58,2.84.92,6.22-1.15,8.26-1.5,1.5-3.81,1.77-5.93,1.88-30.27,1.71-65.55-1.26-95.92.33Z"/><path class="cls-12_brainstorming-83" d="M439.84,326.87c-2.34,3.08-6.33,4.42-10.05,3.36-.56-.15-1.08-.41-1.53-.79-.41-.43-.74-.93-.95-1.49-1.65-3.82-1.73-8.11-1.79-12.27-.15-1.69.08-3.39.68-4.98,2.04-4.46,11.69-8.94,14.79-3.5,2.61,4.59,1.91,15.47-1.15,19.65Z"/><path class="cls-15_brainstorming-83 targetColor" d="M454.15,357.98c-1.09,1.74-3.59,1.89-5.68,1.89-9.15.04-18.27,1.04-27.21,2.98-3.3.57-6.48,1.68-9.42,3.28-2.96,1.62-5.12,4.39-5.99,7.65-.69,3.28.72,7.06,3.71,8.53,1.86.73,3.86,1.02,5.84.85l59.48-.64c1.36.08,2.73-.12,4.01-.58,2.95-1.3,4.22-4.99,4.04-8.21-2.03-38.59-21.41-49.58-24.63-49.09-2.58.38-3,20.3-3.72,23.15-.82,3.23,1.62,7.05-.44,10.2Z" style="fill: rgb(104, 225, 253);"/><path class="cls-12_brainstorming-83" d="M402.75,374.48c-2.42-.34-4.88-.21-7.25.39-4.79,1.13-9.18,3.54-12.71,6.97-.41.35-.74.8-.95,1.3-.25,1.22.41,2.44,1.57,2.88,1.14.4,2.36.51,3.55.33l11.17-.79c1.65-.02,3.28-.33,4.83-.92,1.85-.82,3.42-2.45,5.46-2.53.59.05,1.19.01,1.77-.12,1.78-.67,1.32-3.53.31-4.59-1.55-1.62-5.64-2.62-7.74-2.93Z"/><path class="cls-12_brainstorming-83" d="M413.07,299.32c-.33,4.05.37,8.74,3.72,10.99,2.41,1.64,5.56,1.58,8.49,1.46,4.11-.16,8.36-.37,12.02-2.18,5.6-2.73,8.95-8.57,11.49-14.28,1.93-3.89,3.18-8.08,3.68-12.4.33-4.37-.75-8.91-3.72-12.08-1.9-1.91-4.25-3.32-6.83-4.09-18.17-5.98-27.75,18.47-28.85,32.57Z"/><path class="cls-11_brainstorming-83" d="M425.09,260.63c.07-1.47.48-2.9,1.2-4.18.89-1.27,2.2-2.2,3.69-2.63,4.57-1.44,9.4.71,13.7,2.82l11.14,5.46c4.24,1.39,7.57,4.72,8.95,8.97.67,1.36,1.1,2.82,1.3,4.33.03,2.02-.45,4.01-1.41,5.79-.6,1.57-1.62,2.95-2.95,3.98,1.15.52,1.47,2.02,1.33,3.28-.32,2.21-1.35,4.26-2.93,5.84-1.58,1.57-3.32,2.96-5.19,4.16l-3.6,2.49c-.63.44-1.43.9-2.18.58-.53-.3-.84-.88-.8-1.49.05-.59.21-1.18.47-1.71,1.87-4.73,2.71-9.8,2.45-14.88,0-.88-.17-1.75-.5-2.57-.39-.69-.89-1.31-1.47-1.85l-5.2-5.21c-1.29-1.42-2.76-2.66-4.37-3.69-3.1-1.77-6.85-1.98-10.13-.57-.72.32-2.01,1.16-2.83.94-1.09-.29-.8-1.33-.86-2.4-.15-2.48-.08-4.98.2-7.45Z"/><path class="cls-12_brainstorming-83" d="M452.9,297.67c.17,1.36-.22,2.74-1.09,3.8-.89,1.19-2.07,2.11-3.44,2.69-.61.32-1.33.4-2,.23-.93-.48-1.49-1.45-1.45-2.49-.07-2.33,1.04-4.54,2.94-5.89,1.86-1.21,4.59-.9,5.05,1.66Z"/><path class="cls-11_brainstorming-83" d="M412.68,291.7c1.05-.33,2.13-.54,3.22-.64.73-.1,1.46-.1,2.18,0,.91.2,1.78.52,2.61.94,2.18,1,4.56,2.18,5.61,4.37.28.75.6,1.48.96,2.18.94,1.15,2.21,1.98,3.65,2.37,1.17.45,1.3,2.02,2.28,2.79,1.18.92,2.89.55,4.22-.12,1.49-.73,2.8-1.78,3.86-3.06.64-.97,1.45-1.82,2.39-2.5,1.01-.65,2.36-.36,3.01.64.21.79.07,1.63-.37,2.32-1.6,3.24-3.77,6.16-6.41,8.62-.86.85-1.84,1.59-2.89,2.18-1.61.74-3.34,1.21-5.11,1.38-3.53.5-7.08.78-10.64.82-2.06.13-4.13-.15-6.07-.84-.6-.25-1.15-.58-1.64-1-1.17-1.24-1.94-2.81-2.18-4.5-1.32-5.75-.58-10.46,1.32-15.94Z"/><path class="cls-12_brainstorming-83" d="M423.99,303.86c.08.68-.06,1.36-.38,1.97-.71,1.09-2.25,1.26-3.55,1.09-1.2-.17-2.37-.53-3.45-1.09-.42-.2-.8-.5-1.09-.86-.39-.66-.56-1.42-.48-2.18.01-1.07.09-2.14.22-3.2.07-.79.26-1.57.57-2.3.5-1.09,1.33-1.9,2.51-1.42,1.06.45,2.02,1.09,2.83,1.9,1.66,1.62,2.67,3.79,2.83,6.11Z"/></g><g id="character_3_brainstorming-83"><path class="cls-15_brainstorming-83 targetColor" d="M302.82,340.11c-5.35,5.75-8.45,13.18-11.46,20.44l-8.54,20.75c-.57.96-.68,2.12-.29,3.17.66.83,1.65,1.33,2.71,1.37,4.37.66,8.78,1.1,13.2,1.31,22.23,1.39,44.49,1.9,66.76,1.53,2.67,0,5.46-.13,7.82-1.33,6.14-3.11,6.63-11.64,5.54-18.44-1.26-7.89-3.48-15.59-6.62-22.94-1.1-2.92-2.71-5.62-4.76-7.97-5.09-5.33-13.18-6.18-20.55-6.39-14.1-.44-33.25-2.84-43.8,8.51Z" style="fill: rgb(104, 225, 253);"/><path class="cls-15_brainstorming-83 targetColor" d="M286.47,335.36c-.25-.83-.75-1.56-1.43-2.09-.59-.3-1.26-.45-1.92-.44-1.94-.08-3.88-.01-5.81.21-1.24.04-2.42.49-3.38,1.28-.69.83-1.12,1.85-1.22,2.93-1.56,8.47.23,17.13.93,25.7.47,5.84.52,12.02,3.68,17,2.89,4.42,7.83,7.08,13.11,7.05,2.18,0,4.7-.81,5.54-2.83.33-1.02.42-2.1.27-3.17-1.02-15.39-3.23-31.48-9.77-45.64Z" style="fill: rgb(104, 225, 253);"/><path class="cls-14_brainstorming-83" d="M285.37,327.82c1.04-2.24,2.44-4.28,3.67-6.42.35-.53.58-1.13.67-1.76.08-.65-.26-1.28-.84-1.57-1.23-.47-2.18,1.23-3.51,1.5s-2.18-.75-3.04-1.62c-3.65-3.64-7.97-6.55-12.71-8.56-.48-.3-1.07-.37-1.62-.22-.52.22-.67,1.09-.13,1.29-.51.04-1.01-.09-1.44-.37-.47-.2-1.15-.21-1.35.25s.4,1.09.25,1.7c-.57.02-1.14-.06-1.68-.25-.56-.11-1.29.08-1.4.64-.02.21,0,.43.07.63.08.86.08,1.72,0,2.58,0,2.28,1.39,4.37,2.74,6.17,2.88,3.92,6.05,7.65,8.29,12.02.6,1.37,1.38,2.65,2.32,3.81,1.35,1.43,6.36,3.5,7.65.98.62-1.18.11-3.77.33-5.16.32-1.95.91-3.85,1.75-5.65Z"/><path class="cls-6_brainstorming-83" d="M353.13,362.52c.44,2.12.5,4.54-.87,6.23-1.38,1.68-3.93,2.09-6.18,2.18-10.92.57-22.13-1.31-32.77,1.18-1.54.2-2.95.93-4.01,2.06-1.09,1.47-.95,3.51-.73,5.34l.92,7.84-10.67-1.94c-1.15-.04-2.04-1.01-1.99-2.15,0-.03,0-.06,0-.1-.85-4.09-1.22-8.26-1.09-12.43.14-4.18,1.77-8.16,4.6-11.24,2.57-2.53,6.05-3.88,9.51-4.87,8.25-2.35,16.87-3.05,25.41-3.74,3.7-.29,9.83-1.09,13.03,1.4,2.6,2.01,4.19,7.09,4.85,10.24Z"/><path class="cls-14_brainstorming-83" d="M317.55,302.2c-1.27,2.37-2.2,4.92-2.74,7.56-.68,4.83,1.02,9.69,4.56,13.04,2.55,2.41,6.04,4.19,7.14,7.53,1,3.05-.35,6.55.95,9.53s4.85,4.19,7.91,3.55c3.04-.82,5.65-2.77,7.3-5.46,1.59-2.69,2.93-5.53,3.99-8.48,1.61-3.85,3.48-7.58,5.6-11.16,1.59-2.44,2.99-5,4.21-7.65,1.24-3.15,1.88-6.5,1.9-9.89.15-7.82-2.7-16.07-9-20.7-5.94-4.27-13.96-4.2-19.83.17-2.92,2.18-3.91,5.1-5.46,8.33-2.18,4.51-4.35,9.06-6.52,13.62Z"/><path class="cls-12_brainstorming-83" d="M331.23,262.37c-1.09-1.02-2.58-2.18-3.82-1.4-.46.33-.8.8-.98,1.33-.8,1.93-.91,4.06-.32,6.06-1.22-.6-2.62-.73-3.93-.37-1.98.84-2.28,3.58-1.65,5.64s1.86,3.98,1.87,6.12c0,1.09-.33,2.18-.35,3.34-.11,1.14.45,2.25,1.44,2.83,1.34.6,2.79-.46,4.01-1.29,6.49-4.37,16.39-2.35,20.66,4.24,4.27,6.59,2.67,15.07.97,22.67.43.66,1.23-.34,1.75-.93,1.09-1.26,3.45-.23,3.78,1.41.16,1.7-.65,3.34-2.1,4.25-1.35.98-2.97,1.54-4.37,2.44-.39.19-.68.53-.82.94-.04.36.03.72.21,1.04.45,1.03.96,2.03,1.53,3,.37.84,1.08,1.49,1.96,1.78.64.05,1.27-.09,1.82-.42,4.47-2.18,7.5-6.46,10.01-10.76,2.5-4.3,4.5-9.45,2.06-13.6-.48-.82-1.09-1.54-1.56-2.37-.69-1.59-1.09-3.29-1.2-5.02-1.24-7.92-5.12-15.19-11.01-20.63-2.79-2.58-5.75-4.83-9.51-5.46-4.27-.69-7.21-1.64-10.43-4.83Z"/><path class="cls-14_brainstorming-83" d="M286.09,384.26c-.59.72-1.09,1.82-.46,2.47.45.33,1.02.46,1.56.35l19.6-1.16c.32,0,.65-.06.95-.17.97-.44,1.09-1.77.97-2.84-.11-1.69-.22-3.38-.34-5.06-.12-1.68.26-2.39-1.51-2.63-2.45-.34-5.53.46-7.86,1.09-5.02,1.27-9.52,4.04-12.91,7.95Z"/></g><g id="character_2_brainstorming-83"><path class="cls-11_brainstorming-83" d="M223.77,304.41c.63,10.1-1.09,20.27-.15,30.36.33,3.28.93,6.71-.16,9.83-1.01,2.68-3,4.87-5.57,6.14-5.98,3.06-13.74,1.09-18.41-3.77s-6.55-11.86-6.17-18.57c.38-6.71,2.72-13.11,5.52-19.23,2.51-5.46,6.75-16.24,12.97-18.57,8.03-2.93,11.63,8.08,11.98,13.81Z"/><path class="cls-11_brainstorming-83" d="M213.16,286.11c-2.5-4.52-9.42-6.41-14.41-3.93-1.48.93-3.02,1.75-4.62,2.47-1.88.63-3.92.47-5.89.67-6.32.66-11.93,5.58-12.88,11.31-.54,3.28.29,6.55-.23,9.83-1.23,7.73-9.68,13.57-10.53,21.33-.27,2.52.29,5.04.51,7.55.38,4.72-.44,9.46-2.38,13.77-1.39,3.09-3.34,6.04-3.86,9.33-1.02,6.55,4.48,12.85,11.36,14.86,6.88,2.01,14.62.43,21.14-2.67,7.19-3.41,13.59-8.99,15.75-16.06,3.39-11.02-4.05-22.74-.71-33.78.93-2.56,2.02-5.06,3.28-7.48,3.28-7.17,7.5-19.87,3.46-27.2Z"/><path class="cls-4_brainstorming-83" d="M185.29,328.16c.08-2.98-.39-6.55,1.88-8.44.19-.18.44-.3.7-.34.26.01.5.09.72.23,2.48,1.36,4.7,3.15,6.55,5.3,2.27,2.63,4.04,5.82,6.97,7.65,1.18.75,2.5,1.26,3.72,1.91,2.53,1.37,4.65,3.37,6.16,5.82.45.59.63,1.34.51,2.06-.27.93-1.34,1.33-2.29,1.52-2.73.46-5.51.61-8.28.44-3.77-.1-7.54-.25-11.31-.46-2.43-.05-4.84-.37-7.2-.95-1-.28-2.85-.98-3.1-2.18s1.4-2.42,2.06-3.44c1.78-2.72,2.78-5.87,2.89-9.11Z"/><path class="cls-15_brainstorming-83 targetColor" d="M225.08,355.7l3.53,29.24c-25.4,1.3-50.85,1.08-76.22-.66-.57-5.25,1.37-10.43,3.39-15.29,5.02-12.1,12.08-25.06,24.57-29.02,9.55-3.04,17.93.75,27.31,1.69,4.65.47,9.75-1.09,13.44,2.61,2.82,2.84,3.53,7.58,4,11.43Z" style="fill: rgb(104, 225, 253);"/><path class="cls-9_brainstorming-83" d="M225.08,355.7l3.53,29.24c-25.4,1.3-50.85,1.08-76.22-.66-.57-5.25,1.37-10.43,3.39-15.29,5.02-12.1,12.08-25.06,24.57-29.02,9.55-3.04,17.93.75,27.31,1.69,4.65.47,9.75-1.09,13.44,2.61,2.82,2.84,3.53,7.58,4,11.43Z"/><path class="cls-15_brainstorming-83 targetColor" d="M195.08,376.83c2.21-.04,4.41.22,6.55.75,2.16.57,3.91,2.16,4.68,4.26.82,2.93-1.32,6.02-4.06,7.32s-5.9,1.26-8.94,1.19l-24.47-.58c-2.85.07-5.69-.27-8.44-.99-2.78-.76-5.11-2.65-6.42-5.22-1.77-3.95.36-8.89,4.01-11.24,5.54-3.55,11.44-1.77,17.01.33,6.43,2.44,13.21,3.85,20.09,4.18Z" style="fill: rgb(104, 225, 253);"/><path class="cls-14_brainstorming-83" d="M218.2,339c.87-2.93,2.21-5.7,3.97-8.2l5.77-9.23c.15-.32.4-.58.72-.73.38-.07.78.02,1.09.26,2.69,1.67,3.34,5.32,3.01,8.47-.33,3.15-1.38,6.26-1.09,9.4.35,1.7.61,3.42.76,5.14-.11,2.59-1.35,5.01-3.38,6.63-2.46,2.06-8,4.89-10.07,1.18-1.74-3.2-1.55-9.56-.79-12.92Z"/><path class="cls-15_brainstorming-83 targetColor" d="M224.3,348.57c-2.83.76-5.79,2.13-7,4.8-.5,1.33-.76,2.73-.75,4.15-.42,7.4-.58,14.8-.48,22.22-.13,1.51.22,3.01,1,4.3,1.09,1.41,3.07,1.76,4.86,1.81,3.37.1,6.72-.51,9.83-1.8.99-.3,1.84-.94,2.39-1.81.3-.75.39-1.56.28-2.36-.38-7.35-2.1-14.77-2.18-22.09-.11-5.18-.94-11.12-7.95-9.22Z" style="fill: rgb(104, 225, 253);"/><path class="cls-14_brainstorming-83" d="M204.39,381.44c-.43,0-.85.11-1.22.33-.39.38-.63.89-.68,1.43-.39,2.01-.59,4.45.99,5.73.8.55,1.72.89,2.68.99,2.32.44,4.64.84,6.96,1.23.75.19,1.53.16,2.26-.09.54-.33,1.06-.7,1.55-1.09.92-.42,1.94-.53,2.93-.33,2.51.25,5.02.6,7.52,1.09.84.21,1.71.26,2.57.15.87-.12,1.6-.73,1.87-1.57.31-1.26-.87-2.36-1.97-3.07-7.78-5.14-16.49-5.43-25.45-4.82Z"/><path class="cls-14_brainstorming-83" d="M195.65,346.45c1.69,1.91,7.4,3.68,9.67,2.51,1.51-.78,1.64-4.96,2.32-6.55.52-1.25.92-2.55,1.19-3.88.54-1.83.65-3.76.33-5.65-.36-1.91-1.78-3.45-3.66-3.95-1.79-.33-12.67-1.55-11.63-.05,4.29,6.24-2.26,13.02,1.79,17.58Z"/><path class="cls-10_brainstorming-83" d="M199.16,339.74c.49,1.49,1.16,2.92,2,4.25.86,1.34,2.27,2.24,3.85,2.46.37.04.75-.02,1.09-.16.98-.46,1.25-1.7,1.39-2.77l.78-5.79c.09-.44.07-.89-.07-1.31-.19-.36-.47-.66-.82-.87-.83-.62-1.69-1.19-2.58-1.71-1.85-1.09-4.26-2.29-6.49-1.87-.75.1-1.38.62-1.63,1.33-.27.95.47,1.92.85,2.73.59,1.19,1.13,2.45,1.63,3.72Z"/><path class="cls-14_brainstorming-83" d="M219.28,305.4s5.25,21.25-.71,28.64c-5.96,7.4-15.52,7.17-19.33,3.1-3.81-4.06-17.99-21.85-12.74-32.54,5.25-10.69,25.78-23.55,32.78.8Z"/><path class="cls-11_brainstorming-83" d="M197.39,299.42c-.4,2.47-.07,5.07-.94,7.41-1.53,4.06-6.29,6.18-7.86,10.22-.38.98-.56,2.04-1.02,2.99-.38,1-1.26,1.73-2.32,1.93-1.07.02-2.05-.58-2.53-1.53-.46-.94-.72-1.97-.75-3.01-.68-6.99.13-14.43,4.03-20.26,3.03-4.62,8.01-7.59,13.51-8.06,3.28-.17,4.37.51,2.08,2.94-2.05,2.16-3.69,4.28-4.19,7.37Z"/><path class="cls-14_brainstorming-83" d="M187.94,324.44c-.26.01-.51.09-.72.24-.13.12-.24.26-.32.43-.44.67-.64,1.46-.57,2.25.36,1.22,1.38,2.12,2.63,2.32,1.32.35,2.72.32,4.03-.08.13-.03.25-.09.34-.19.13-.23.13-.51,0-.74-.5-1.17-1.19-2.25-2.04-3.2-.86-.91-2.13-1.31-3.35-1.03Z"/></g><g id="character_1_brainstorming-83"><path class="cls-15_brainstorming-83 targetColor" d="M113,338.42c2.97.71,6.02,1.57,8.41,3.47,1.84,1.6,3.38,3.51,4.54,5.66,5.84,9.77,9.56,20.67,10.92,31.97.19.92.12,1.87-.22,2.74-.82,1.66-3.07,1.87-4.93,1.85l-86.19-.93-9.73.61c2.18-9.7,8.54-41.88,22.23-46.05,5.48-1.38,11.07-2.32,16.7-2.82,5.86-.24,11.73-.16,17.59.24,6.96.54,13.87,1.63,20.67,3.26Z" style="fill: rgb(104, 225, 253);"/><path class="cls-8_brainstorming-83" d="M113,338.42c2.97.71,6.02,1.57,8.41,3.47,1.84,1.6,3.38,3.51,4.54,5.66,5.84,9.77,9.56,20.67,10.92,31.97.19.92.12,1.87-.22,2.74-.82,1.66-3.07,1.87-4.93,1.85l-86.19-.93-9.73.61c2.18-9.7,8.54-41.88,22.23-46.05,5.48-1.38,11.07-2.32,16.7-2.82,5.86-.24,11.73-.16,17.59.24,6.96.54,13.87,1.63,20.67,3.26Z"/><path class="cls-14_brainstorming-83" d="M99.52,335.62c.03,1.43-.16,2.85-.55,4.23-1.2,3.57-5.35,5.65-9.08,5.1-3.77-.72-6.97-3.17-8.65-6.62-1.62-3.41-2.37-7.16-2.18-10.92-.11-1.71.32-3.41,1.23-4.86,1.25-1.39,3.03-2.18,4.9-2.18,3.32-.2,6.59.89,9.12,3.06,1.23,1.09,3.64,1.99,4.37,3.17.9,1.63.91,7.05.83,9.03Z"/><path class="cls-7_brainstorming-83" d="M80.23,324.47s11.47,18.06,15.64,12.92c2.47-3.04,3.48-7.01,2.75-10.86l-18.39-2.06Z"/><path class="cls-15_brainstorming-83 targetColor" d="M121.96,336.98l-6.81,4.65c-.53.32-1.01.71-1.42,1.17-.59.85-.96,1.83-1.09,2.85-2.14,10.42-3.16,21.04-3.03,31.68-.06,1.11.1,2.23.49,3.28.62,1.22,1.65,2.18,2.91,2.72,2.5,1.21,5.37,1.31,8.15,1.39l11.02.29c1.1.1,2.22-.02,3.28-.35,2.55-.98,3.54-4.14,3.34-6.86-.37-2.86-1.21-5.65-2.49-8.24l-7.49-17.56c-1.81-4.36-3.39-11.73-6.86-15.02Z" style="fill: rgb(104, 225, 253);"/><path class="cls-14_brainstorming-83" d="M112.92,301.7c0,9.91-3.51,21.02-12.47,25.23-6.44,3.03-14.39,1.59-20.22-2.47-5.83-4.06-9.75-10.42-12.16-17.12-2.76-7.71-3.69-16.26-1.37-24.12,2.33-7.85,8.23-14.84,16.02-17.34,21.73-6.89,30.21,19.43,30.19,35.81Z"/><path class="cls-11_brainstorming-83" d="M81.05,280.23c.76-.19,1.49-.47,2.18-.83,1.27-.8,1.92-2.29,3.08-3.28,1.28-.83,2.73-1.37,4.25-1.57,3.97-.94,7.73-2.62,11.09-4.95,3.28-2.28,6.34-6.12,5.05-9.83-.52-1.32-1.39-2.48-2.52-3.34-3.46-2.81-8.05-3.79-12.35-2.64-5.81,1.64-9.83,6.82-14.69,10.36-5.75,4.16-13.48,6.75-16.07,13.36-1.4,3.58-.94,7.73-2.58,11.22-.79,1.67-2.09,3.39-1.57,5.17.47,1.58,2.28,2.63,2.35,4.28-.05.79-.27,1.55-.64,2.25-1.43,3.58-.68,7.76,1.09,11.17,1.96,3.34,4.4,6.36,7.26,8.97,3.28,3.28,7.49,6.89,12.11,6.05.27-.04.53-.13.76-.28.94-.71,0-2.18-.82-2.97-3.13-3.02-5.45-6.77-6.75-10.92-.2-.49-.24-1.03-.12-1.55.38-.79,1.28-1.18,2.12-.93.81.27,1.54.72,2.13,1.33.92-.9,1.09-2.33.4-3.42-1.45-2.72-3.93-4.37-5.21-7.36-1.13-2.26-1.54-4.82-1.16-7.32.95-5.78,4.88-11.15,10.61-12.96Z"/><path class="cls-14_brainstorming-83" d="M110.98,317.57c-2.9-.2-5.77.68-8.05,2.47-1.03.73-2.1,1.89-1.71,3.1.5,1.01,1.56,1.62,2.69,1.53,1.1-.11,2.2-.04,3.28.21-1.99,2.64-3.29,5.73-3.79,8.99-.48,3.18,0,6.89,2.68,8.74,1.89,1.12,4.12,1.54,6.29,1.19,1.74-.1,3.44-.53,5.01-1.28,3.41-1.96,5.44-5.67,5.23-9.6-.13-3.72-2-6.89-4.43-9.59-2.15-2.37-3.66-5.34-7.19-5.76Z"/></g><g id="idea_brainstorming-83"><path class="cls-13_brainstorming-83" d="M128.95,260.24c-1.8-1.09-4.12-.8-5.59.71-1.39,1.52-2.13,3.53-2.05,5.59-.07,1.2.19,2.4.75,3.46.59,1.07,1.72,1.73,2.94,1.74.91-.11,1.75-.54,2.38-1.2,2.81-2.97,2.67-7.66-.3-10.47-.04-.04-.08-.08-.13-.12"/><path class="cls-13_brainstorming-83" d="M146.87,247.1c-1.32,1.98-1.09,5.08.98,6.32,1,.54,2.14.77,3.28.68,1.34-.05,2.66-.27,3.93-.68.39-.18.82-.24,1.25-.17.37.16.7.4.96.71,2.05,1.75,5.13,1.51,6.89-.54,1.75-2.05,1.51-5.13-.54-6.89-.27-.22-.61-.48-.57-.83.03-.18.12-.35.24-.49,1.28-1.97.8-4.59-1.09-5.99-3.93-2.73-4.72,1.15-6.42,3.28-2.21,2.79-6.61,1.21-8.9,4.6Z"/><path class="cls-13_brainstorming-83" d="M194.66,227.01c1.61-.11,3.38-.55,4.22-1.91.4-.76.61-1.6.6-2.46.07-1.37.01-2.75-.17-4.11-.64-4.59-7.13-6.82-9.51-2.36-2.38,4.46-1.3,11.27,4.87,10.84Z"/><path class="cls-13_brainstorming-83" d="M235.09,245.2c-.39-.31-.91.21-1.09.66-1.15,2.74-.94,5.87.57,8.43.16.3.39.56.67.75.28.15.6.23.92.22,1.68-.12,3.08-1.34,3.43-2.98.3-1.63-.1-3.31-1.09-4.63-.88-1.32-2.17-2.31-3.67-2.83"/><path class="cls-13_brainstorming-83" d="M321.86,258.45c1.26-.03,2.28-1.04,2.33-2.3.85-4.83-5.02-13.11-10.1-8.45-5.08,4.65,2.75,11.52,7.78,10.76Z"/><path class="cls-13_brainstorming-83" d="M370.85,218.29c1.17-2.09.65-4.72-1.23-6.2-1.15-.92-2.77-1.02-4.02-.23-1.33.99-1.42,2.92-1.39,4.58-1.27-.61-2.86.61-3,2.01-.02,1.44.67,2.79,1.85,3.62,1.17,1.03,2.71,1.53,4.26,1.4,1.57-.18,2.84-1.35,3.15-2.89.13-1.04-.28-2.11-.08-3.13"/><path class="cls-13_brainstorming-83" d="M388.85,236.61c-1.26-.61-2.69-.77-4.05-.46-.53.09-1.02.35-1.4.74-.36.53-.53,1.17-.48,1.81,0,.96.12,1.91.36,2.84.11.64.42,1.22.88,1.67,1.02.84,2.53.33,3.74-.22.93-.43,1.98-.98,2.18-1.99.09-.63-.03-1.27-.33-1.84-.55-1.31-1.25-2.54-2.1-3.68"/><path class="cls-13_brainstorming-83" d="M416.51,240.43c-1.04,1.51-.9,3.55.34,4.9.54.62,1.36.94,2.18.83.98-.31,1.7-1.16,1.84-2.18.44-2.62-1.19-5.14-3.76-5.81"/><path class="cls-13_brainstorming-83" d="M243.65,71.9c-4.4,3.22-7.87,7.56-10.04,12.57-.44,1.14-1.12,2.17-1.98,3.04-1.98,1.73-4.96,1.17-7.56.84-17.12-2.21-32.8,9.88-35,27.01-.33,2.55-.34,5.13-.04,7.68-9.23.34-16.24,9.07-18.49,18.02-2.47,9.67-.67,19.94,4.95,28.19,5.76,8.17,15.13,13.04,25.12,13.05-.62,6.96,2.53,13.67,6.07,19.66,2.39,4.06,5.06,8.07,8.74,11.05s8.47,4.85,13.11,4.03c.7,10.41,10.29,18.83,20.61,20.28s20.82-2.99,28.74-9.78c4.27,4.11,10.98,4.85,16.67,3.2s10.55-5.35,14.99-9.27c8.3,2.38,16.93-1.69,24.61-5.65,4.88-2.52,9.99-5.24,12.91-9.9s3.16-10.42,1.94-15.69c-1.21-5.27-3.79-10.12-6.34-14.89,4.42-2.58,8.98-5.28,11.95-9.45,2.97-4.17,3.9-10.26.79-14.31-.8-1.04-1.84-1.97-2.11-3.28-.32-1.45.48-2.88,1.09-4.23,3.01-6.55,2.12-14.41-.97-20.92-3.09-6.51-8.15-11.87-13.5-16.7-4.02-3.62-8.32-7.05-13.34-9.04-5.01-2-10.92-2.4-15.73,0-1.34-4.21-2.77-8.56-5.8-11.78s-8.14-4.94-12.02-2.74c1.35-.78-7.59-9.57-8.5-10.21-3.89-2.74-8.39-4.48-13.11-5.06-7.94-.91-21.01-.4-27.78,4.24Z"/><path class="cls-16_brainstorming-83 targetColor" d="M248.76,144c-6.55-10.05-7.41-24.6.68-33.5,3.83-4.02,8.84-6.74,14.3-7.77,9.5-1.99,20.38.8,26.22,8.54,3.45,4.79,5.07,10.66,4.59,16.54-.49,5.85-2.36,11.5-5.46,16.48-1.74,2.94-3.82,5.77-4.59,9.1-.49,2.18-.4,4.37-.82,6.55-1.34,6.2-6.5,10.84-12.8,11.52-5.46.47-13.11-3.12-14.2-9-.59-3.18,0-5.63-1.53-8.82-1.66-3.5-4.27-6.44-6.38-9.66Z" style="fill: rgb(104, 225, 253);"/><path class="cls-1_brainstorming-83" d="M260.22,164.23c1.23-6.03,0-12.23-.75-18.34-.38-2.02-.29-4.1.26-6.07.7-1.92,2.53-3.58,4.57-3.43,2.32.19,3.86,2.48,4.61,4.68.92,2.7,1.2,5.58.82,8.41-.21,1.5-.76,3.19-2.18,3.76-2.7-3.99-1.92-9.39,1.8-12.45.75-.65,1.71-.99,2.7-.96,1.59.17,2.62,1.81,3,3.38.45,1.8.39,3.69-.16,5.46-.12.52-.41.99-.81,1.34-.44.33-1.05.28-1.43-.11-.14-.26-.21-.55-.2-.84-.17-3.41,0-7.2,2.37-9.67.35-.44.85-.73,1.4-.83.45-.04.91.06,1.3.29,2.24,1.31,2.97,4.28,2.57,6.84s-1.69,4.87-2.64,7.27c-1.53,3.88-2.21,8.05-2,12.22"/><path class="cls-11_brainstorming-83" d="M254.17,167.88c-.25.4-.6.73-.84,1.09-.8,1.32-.34,3.01.15,4.49.96,2.89,2.04,5.98,4.48,7.82,1.72,1.16,3.7,1.88,5.77,2.09,4.02.62,8.13.55,12.12-.22,1.83-.28,3.58-.9,5.18-1.82,1.6-.95,2.76-2.5,3.19-4.31.06-.55.16-1.1.31-1.64.16-.47.46-.88.67-1.33.45-1.05.45-2.23,0-3.28-.36-.62-.65-1.27-.87-1.94-.07-.67-.02-1.34.14-1.99.37-2.52-.16-5.08-1.5-7.24-3.26,2.74-7.21,4.55-11.41,5.23-3.99.61-8.06-.2-11.51-2.27-1.45-.93-2.94-2.59-4.26-.58-1.2,1.77-.54,4.18-1.61,5.91Z"/></g></svg>