<svg id="_0486_drone" xmlns="http://www.w3.org/2000/svg" xmlns:xlink="http://www.w3.org/1999/xlink" viewBox="0 0 500 500" data-imageid="drone-59" imageName="Drone" class="illustrations_image" style="width: 166px;"><defs><style>.cls-1_drone-59{opacity:.1;}.cls-1_drone-59,.cls-2_drone-59,.cls-3_drone-59,.cls-4_drone-59,.cls-5_drone-59,.cls-6_drone-59,.cls-7_drone-59,.cls-8_drone-59,.cls-9_drone-59,.cls-10_drone-59,.cls-11_drone-59,.cls-12_drone-59{stroke-width:0px;}.cls-1_drone-59,.cls-3_drone-59,.cls-4_drone-59,.cls-5_drone-59,.cls-6_drone-59{isolation:isolate;}.cls-1_drone-59,.cls-4_drone-59{fill:#020202;}.cls-2_drone-59{fill:url(#linear-gradient);}.cls-3_drone-59{opacity:.18;}.cls-3_drone-59,.cls-5_drone-59,.cls-6_drone-59,.cls-12_drone-59{fill:#68e1fd;}.cls-4_drone-59{opacity:.03;}.cls-5_drone-59{opacity:.35;}.cls-6_drone-59{opacity:.33;}.cls-7_drone-59{fill:#473f47;}.cls-8_drone-59{fill:#e0a091;}.cls-9_drone-59{fill:#c14834;}.cls-10_drone-59{fill:#fff;}.cls-11_drone-59{fill:#ffbaa8;}</style><linearGradient id="linear-gradient-drone-59" x1="839.14" y1="2086.07" x2="851.75" y2="2218.88" gradientTransform="translate(-491.62 2312.69) scale(1 -1)" gradientUnits="userSpaceOnUse"><stop offset="0" stop-color="#231f20"/><stop offset=".13" stop-color="#231f20" stop-opacity=".69"/><stop offset=".25" stop-color="#231f20" stop-opacity=".32"/><stop offset="1" stop-color="#231f20" stop-opacity="0"/></linearGradient></defs><g id="background_drone-59"><path class="cls-3_drone-59 targetColor" d="M293.95,70.48l87.6,8.84c19.41,1.95,39.26,4.02,56.92,12.31,25.87,12.13,45.03,38.36,46.95,66.86,1.67,25.28-8.94,48.87-10.22,73.79-1.37,26.8,13.68,47.73,13.66,74.62-.16,28.97-11.61,56.73-31.92,77.39-28.55,28.79-70.78,39.63-111.26,41.7s-81.09-3.19-121.57-1c-38.36,2.05-76.42,10.82-114.66,7.91-38.24-2.92-78.77-20.93-93.9-56.19-13.24-30.89-4.42-68.55,7.32-98.6,9.52-24.35,29.84-35.74,42.56-58.72,24-43.18,25.33-101.37,66.58-133.96,33.11-26.15,79.82-23.22,121.75-18.98l40.19,4.05Z" style="fill: rgb(104, 225, 253);"/></g><g id="screen_drone-59"><polygon class="cls-12_drone-59 targetColor" points="230.42 285.01 139.82 329.43 139.82 236.23 230.42 191.81 230.42 285.01" style="fill: rgb(104, 225, 253);"/><polygon class="cls-5_drone-59 targetColor" points="187.95 261.56 97.36 305.96 97.36 212.76 187.95 168.36 187.95 261.56" style="fill: rgb(104, 225, 253);"/><polygon class="cls-10_drone-59" points="270.46 302.34 179.85 346.74 179.85 253.52 270.46 209.14 270.46 302.34"/></g><g id="drone_drone-59"><path class="cls-12_drone-59 targetColor" d="M160.28,139.59s20.41-6.34,23.85-4.59,2.27,7.31,2.27,7.31h2.47s-1.5-5.89,1.22-6.95c2.72-1.07,7.41-1.13,9.26.18s.97,6.77.97,6.77h2.1s-.27-6.07.62-6.5,9.76,1.67,15.98,5.8c4.37,2.92-7.97-6.45-15.64-12.24-3.58-2.7-8.1-3.82-12.53-3.12h0c-3.17.5-6.26,1.47-9.14,2.89l-21.42,10.46Z" style="fill: rgb(104, 225, 253);"/><path class="cls-10_drone-59" d="M229.77,145.23l-1.83,1.07-1.33.77s-21.26-16.38-31.44-17.16c-6.19-.48-24.42,6.45-32.84,9.82h0c-2.69,1.08-4.37,1.8-4.37,1.8l-1.05-4.22s20.13-10.56,23.8-14.88c.2-.2.36-.44.48-.7,1.67-3.7-17.36-23.52-17.36-23.52l.72-1.43.28-.53,2.07,1.37h0c5.6,3.7,20.51,13.56,21.92,14.43,1.67,1.05,5.67,2.37,14.13,1.67,7.16-.57,27.85-9.52,27.85-9.52l1.43.82,2.54,1.43s-20.86,8.84-25.35,14.01c-.71,1.06-.75,2.44-.1,3.54h0c3.07,7.59,20.46,21.25,20.46,21.25Z"/><path class="cls-12_drone-59 targetColor" d="M160.1,93.19s-20.06,10.66-20.4,13.13,20.71-8.46,22.35-8.34c1.59.17,3.19.03,4.72-.43.65-.37,1-1.25,1.67-2.12s17.86-9.16,17.33-10.31-22,6.95-22,6.95c-1.33-.27-2.71.15-3.67,1.12Z" style="fill: rgb(104, 225, 253);"/><path class="cls-12_drone-59 targetColor" d="M235.77,102.08s18.06,13.78,17.93,16.24-19.06-11.67-20.71-11.79c-1.59-.09-3.15-.5-4.59-1.2-.58-.47-.78-1.38-1.33-2.37s-16.14-11.94-15.43-12.99,20.7,10.44,20.7,10.44c0,0,2.57,0,3.44,1.67Z" style="fill: rgb(104, 225, 253);"/><path class="cls-12_drone-59 targetColor" d="M232.77,147.65s20.01-10.64,20.35-13.11-20.73,8.46-22.37,8.34c-1.59-.17-3.19-.02-4.72.43-.65.37-1,1.23-1.67,2.12s-17.88,9.16-17.35,10.31,22.1-6.95,22.1-6.95c1.33.26,2.7-.17,3.65-1.13Z" style="fill: rgb(104, 225, 253);"/><path class="cls-12_drone-59 targetColor" d="M154.91,139.78s-18.08-13.78-17.93-16.24,19.06,11.67,20.71,11.81c1.59.08,3.14.48,4.57,1.18.58.47.8,1.4,1.35,2.37s16.13,11.96,15.43,12.99-20.71-10.37-20.71-10.37c0,0-2.55.02-3.42-1.73Z" style="fill: rgb(104, 225, 253);"/><path class="cls-6_drone-59 targetColor" d="M180.65,122.43c.2-.2.36-.44.48-.7,1.67-3.7-17.36-23.52-17.36-23.52l.72-1.43,2.35.83h0c.97.97,16.58,16.44,17.8,19.45.93,2.17-2.02,4.27-3.99,5.37Z" style="fill: rgb(104, 225, 253);"/><path class="cls-6_drone-59 targetColor" d="M234.77,106.54s-20.86,8.84-25.35,14.01c-.71,1.06-.75,2.44-.1,3.54-.32-.25-4.69-3.8-.47-7.51s20.5-10.31,23.35-11.47l2.57,1.43Z" style="fill: rgb(104, 225, 253);"/><path class="cls-6_drone-59 targetColor" d="M227.9,146.3l-1.33.77s-21.26-16.38-31.44-17.16c-6.19-.48-24.42,6.45-32.84,9.82h0v-2.13s24.57-12.91,29.9-12.58,8.22.22,17.41,7.36c8.09,6.4,16.46,12.56,18.3,13.93Z" style="fill: rgb(104, 225, 253);"/><rect class="cls-12_drone-59 targetColor" x="183.92" y="141.03" width="20.65" height="3.95" style="fill: rgb(104, 225, 253);"/></g><g id="character_drone-59"><path class="cls-4_drone-59" d="M355,362.62c-4.85,1.42-10.56,3.75-11.37,8.76-.62,3.8,2.2,7.51,5.67,9.17,3.6,1.41,7.46,2.04,11.32,1.85,25.5.52,52.17.78,75.05-10.59,5-2.49,9.67-5.47,14.69-7.84,2.93-1.13,5.7-2.65,8.22-4.52,2.54-1.97,3.81-5.16,3.34-8.34-.82-3.65-4.8-5.87-8.56-5.99s-7.34,1.35-10.86,2.64c-14.76,5.38-30.39,7.98-46.1,7.67-6.54-.13-12.08-1.4-18.43.35-7.67,2.18-15.31,4.57-22.98,6.84Z"/><path class="cls-11_drone-59" d="M389.05,356.73c.07,2.16-.33,4.32-1.18,6.3-1.06,1.84-2.65,3.32-4.57,4.24-4.11,2.15-8.89,2.62-13.34,1.32-.6-.11-1.15-.44-1.53-.92-.23-.41-.32-.87-.28-1.33.35-2.46,1.6-4.7,3.5-6.29,1.91-1.55,3.54-3.42,4.82-5.52,2.05-4.14.53-15.14,8.34-13.34,6.47,1.43,4.42,10.94,4.25,15.54Z"/><path class="cls-12_drone-59 targetColor" d="M390.13,364.2s1.1,2.72-.27,4.32-15.36,10.29-24.78,3.34c-9.42-6.95,12.79-7.92,12.79-7.92l12.26.27Z" style="fill: rgb(104, 225, 253);"/><path class="cls-10_drone-59" d="M389.58,357.86c-.89-.43-1.96-.16-2.54.65-1.86,2.13-4.7,3.14-7.49,2.69-3.07-.73-4.3-4.27-5.84-4.29s-9.67,6.92-10.12,9.89,3.7,5.17,8.34,5.45,15.01-2.89,17.01-5.3c1.68-2.75,1.91-6.14.63-9.09Z"/><path class="cls-11_drone-59" d="M415.78,361c.06,2.16-.34,4.31-1.18,6.3-1.06,1.84-2.65,3.32-4.57,4.24-4.11,2.15-8.89,2.62-13.34,1.32-.61-.12-1.15-.45-1.53-.93-.22-.4-.31-.86-.27-1.32.35-2.46,1.6-4.7,3.5-6.29,1.9-1.56,3.53-3.42,4.82-5.52,2.05-4.14.53-15.16,8.34-13.34,6.44,1.43,4.4,10.94,4.24,15.54Z"/><path class="cls-12_drone-59 targetColor" d="M416.85,368.45s1.12,2.74-.25,4.32-15.36,10.31-24.78,3.34c-9.42-6.97,12.78-7.91,12.78-7.91l12.26.25Z" style="fill: rgb(104, 225, 253);"/><path class="cls-10_drone-59" d="M416.31,362.13c-.89-.43-1.96-.16-2.54.65-1.87,2.13-4.7,3.14-7.49,2.69-3.07-.73-4.3-4.27-5.84-4.3s-9.67,6.92-10.12,9.91,3.69,5.17,8.34,5.45c4.65.28,15.01-2.9,17-5.32,1.69-2.73,1.93-6.12.65-9.07Z"/><path class="cls-7_drone-59" d="M421.35,245.92s1.45,80.06-4.49,106.74l-15.01,1.85-10.42-109.64,29.92,1.05Z"/><path class="cls-7_drone-59" d="M374.87,237.18s-7.07,43.2,1.52,112.58l15.01,1.85,10.42-109.64-26.95-4.79Z"/><path class="cls-10_drone-59" d="M357.22,202.72c.17,2.89,1.1,5.42,3.6,6.25l.65.17c4.62.93,10.69-2.59,14.91-5.65,1.74-1.27,3.41-2.64,5-4.1v-30.94l-22.48,23.02c-1.17,3.64-1.74,7.44-1.68,11.26Z"/><path class="cls-10_drone-59" d="M376.22,203.39c0,1.43-.18,2.92-.18,4.35,0,8.01,1.85,16.24-.53,24.07-.77,1.68-.99,3.56-.63,5.37.68,1.44,1.87,2.59,3.34,3.22,7.04,3.85,15.18,5,23.13,6.15,5.97.83,14.46,2.6,20.01-.62,2.35-1.37,3.15-3.92,3.9-6.47,2.4-8.11,3.1-16.81,3.74-25.22.08-1.1.15-2.2.22-3.34.47-7.64.62-15.31.47-22.97-.1-5.55-.53-11.56-4.17-15.74-4.84-5.59-14.16-9.29-21.25-10.59-2.3-.47-4.65-.6-6.99-.38-3.31.53-6.51,1.61-9.46,3.2-3.52,1.75-6.67,3.22-8.34,6.67-1.89,4.02-3.21,8.29-3.92,12.68-.64,4.12-.72,8.3-.23,12.44.22,2.02.75,4.04.93,6.05-.02.38-.03.75-.03,1.12Z"/><path class="cls-1_drone-59" d="M408.83,248.64c2.32.68,7.67-1.43,9.44-1.75,1.07-.18,2.03-.72,3.09-.97,5.29-1.32,5.92-16.19,6.44-20.2,1.37-10.57,3.49-21.53,3.6-32.14.23-4.09-.24-8.18-1.4-12.11-1.2-3.98-4.11-7.21-7.94-8.82-.74-.31-1.55-.4-2.33-.25-3.24.82-3.9,6.14-4.45,8.72-.83,3.95-2.25,8.04-5.69,10.49-8.34,5.95-22.47,1.53-31.51,0-.79-.24-1.64-.24-2.44,0-1.16.73-1.69,2.14-1.3,3.45.41,1.27.97,2.48,1.67,3.62,2.15,4.34,1.57,9.52,2.8,14.23,1.76,5.62,5.34,10.49,10.19,13.84,4.81,3.3,9.88,6.22,15.14,8.74,1.19.54,2.28,1.29,3.19,2.23,1.08,1.36,1.63,3.07,1.53,4.8,0,1.1-1.4,4.49-.98,5.27.18.4.53.71.95.83Z"/><path class="cls-11_drone-59" d="M392.56,154.99c.83.95,2,1.54,3.25,1.67,1.04.09,2.09.09,3.14,0h.6c.14-.01.29.01.42.08.12.13.18.29.18.47.24,2.09.28,4.19.13,6.29h0l-.1,1.13c-.08.4-.05.81.1,1.18.29.44.75.74,1.27.83.92.3,1.87.46,2.84.48,2.07-.2,4.05-.89,5.79-2.03-.14-3.58.05-7.17.57-10.72.67-4.59,1.87-9.17,1.37-13.78-.1-1.82-.76-3.57-1.88-5-1.83-1.74-4.3-2.63-6.82-2.45-3.31-.06-6.56.83-9.37,2.57-1.03.7-1.15,1.67-1.4,2.77-.35,1.8-.63,3.64-.83,5.47s-.37,4.17-.4,6.29c-.18,1.67.23,3.36,1.17,4.75Z"/><path class="cls-9_drone-59" d="M396.2,136.77c2.35.4,5,0,7.14.9,3.07,1.6,4.49,5.21,3.34,8.47.9.32,1.05-1.3,1.67-1.95s2.25.22,2.37,1.35c0,1.13-.29,2.24-.82,3.24-.85,1.98-1,4.19-.42,6.27.13.48.5,1.07.98.93s.83-.95,1.13-1.32c.47-.6,1-1.16,1.57-1.67,1.08-.95,2.28-1.78,3.34-2.72,1.98-1.67,3.82-3.92,3.7-6.5-.06-1.05-.41-2.06-1.02-2.92-.5-.75-1.16-1.39-1.92-1.88-.32-.2-.68-.42-.75-.78-.01-.2.02-.41.08-.6.49-2.72-.66-5.48-2.94-7.05-2.26-1.52-4.84-2.48-7.54-2.8-1.67-.3-3.47-.55-5.2-.75-1.45-.07-2.87-.41-4.19-1,.34-.95.81-1.84,1.38-2.67-1.24.38-2.42.94-3.5,1.67.05-.61.21-1.2.47-1.75-1.96.47-3.75,1.49-5.15,2.94-1.5,2.07-1.57,4.84-.18,6.99,1.38,1.91,3.47,3.19,5.8,3.54l.65.08Z"/><path class="cls-8_drone-59" d="M398.95,156.67h.6c.14-.01.29.01.42.08.12.13.18.29.18.47.24,2.09.28,4.19.13,6.29h0c3.81-1.23,6.23-4.96,5.8-8.94-2.28.95-4.66,1.65-7.09,2.1h-.05Z"/><path class="cls-10_drone-59" d="M338.48,194.73c2.94,4.19,6.59,7.83,10.79,10.76,3.01,2.06,6.5,3.32,10.14,3.65.48.05.96,0,1.42-.15.78-.24,1.46-.71,1.95-1.35,1.52-1.81,2.43-4.06,2.6-6.42.25-6.15-6.42-9.74-6.42-9.74,0,0-15.21-4.85-17.01-4.05-1,.42-1.93,2.55-2.59,4.42-.53,1.53-.88,2.89-.88,2.89Z"/><path class="cls-10_drone-59" d="M405.54,223.57h0c-5.94-2.11-9.05-8.64-6.94-14.58l10.33-29.13c2.11-5.95,8.64-9.06,14.58-6.95h0c5.94,2.11,9.05,8.64,6.94,14.58l-10.33,29.13c-2.11,5.95-8.64,9.06-14.58,6.95Z"/><path class="cls-1_drone-59" d="M338.48,194.73c2.94,4.19,6.59,7.83,10.79,10.76,3.01,2.06,6.5,3.32,10.14,3.65.48.05.96,0,1.42-.15l.65.17c4.62.93,10.69-2.59,14.91-5.65v-.1l-1.52-9.26c-2.77,2.86-6,5.24-9.54,7.05-2.49,1.34-5.35,1.88-8.16,1.52-.76-.12-1.5-.34-2.2-.67-5.64-2.71-10.91-6.15-15.66-10.22-.48,1.55-.83,2.9-.83,2.9Z"/><path class="cls-10_drone-59" d="M402.62,196.23l-25.15-13.71-9.71,10.99s31.69,31.96,41.03,30.69c9.34-1.27,5.4-11.17,5.4-11.17,0,0,3.52-10.64-11.57-16.8Z"/><path class="cls-12_drone-59 targetColor" d="M346.52,167.9c-2.69.35-5.62,1.1-7.1,3.34-.56.89-.91,1.9-1.02,2.95-.5,4.35,2.05,8.42,4.52,12.04.92,1.61,2.25,2.94,3.85,3.87.88.34,1.81.56,2.75.63,7.14.8,14.38-.15,21.06-2.79,1.03-.26,1.73-1.21,1.67-2.27.42-2.05.39-4.17-.08-6.2-.39-1.16-.89-2.28-1.52-3.34-1.93-3.52-3.59-8.99-8.34-8.99-5.28-.09-10.55.16-15.79.75Z" style="fill: rgb(104, 225, 253);"/><path class="cls-2_drone-59" d="M344.85,171.77c-2.15.05-4.19,1.01-5.6,2.64-.43.7-.7,1.5-.78,2.32-.4,3.44,1.67,6.67,3.55,9.47.72,1.27,1.77,2.33,3.04,3.05.69.28,1.42.44,2.17.5,5.62.63,11.31-.12,16.58-2.18.32-.11.62-.29.87-.52.28-.37.44-.81.47-1.27.34-1.61.34-3.28,0-4.89-.3-.92-.7-1.79-1.2-2.62-1.52-2.79-2.82-7.09-6.57-7.09-4.18-.07-8.36.13-12.51.58Z"/><path class="cls-11_drone-59" d="M373.53,177.14c0-.25-.18-.5-.27-.73-.64-1.8-1.9-3.31-3.55-4.27-1.54-.5-3.19-.55-4.75-.15l-6.29,1c-.24.03-.47.1-.68.2-.25.17-.46.4-.6.67-.92,1.7-.71,3.79.53,5.27.41.37.77.81,1.05,1.28.19.67.28,1.37.25,2.07.5,2.17,2.08,3.93,4.19,4.67,2.08.7,4.06,1.66,5.9,2.84.51.46,1.07.86,1.67,1.2,1.01.39,2.11.5,3.17.3.46,0,.9-.13,1.28-.38.28-.29.47-.65.55-1.03.82-2.49,1.38-3.85.48-6.35-.77-2.08-2.6-4.49-2.75-6.67.11-2.61,0-5.22-.33-7.81-.2-.92-.65-1.97-1.58-2.1-.67-.06-1.31.25-1.67.82-.33.55-.58,1.14-.72,1.77-.21,1.07-.84,2.02-1.75,2.62"/><path class="cls-11_drone-59" d="M346.88,183.04c.23.81.33,1.66.3,2.5-.06.85-.53,1.63-1.27,2.07-1.03.52-2.4,0-3.34.67-.55.45-.99,1.02-1.28,1.67-.31.64-.96,1.04-1.67,1.05-.35-.08-.68-.26-.93-.52-1.82-1.75-2.99-4.07-3.34-6.57-.44-2.85-.44-5.75,0-8.61.38-2.65,1.32-2.3,3.12-1.05s4.4,1.32,6.04,2.99c1.29,1.69,2.11,3.69,2.37,5.8Z"/><path class="cls-10_drone-59" d="M351.94,168.45l-8.52-42.91,9.89,42.91s.88.87-1.37,0Z"/><circle class="cls-12_drone-59 targetColor" cx="343.41" cy="126.48" r="2.5" style="fill: rgb(104, 225, 253);"/></g></svg>